G04 MADE WITH FRITZING*
G04 WWW.FRITZING.ORG*
G04 DOUBLE SIDED*
G04 HOLES PLATED*
G04 CONTOUR ON CENTER OF CONTOUR VECTOR*
%ASAXBY*%
%FSLAX23Y23*%
%MOIN*%
%OFA0B0*%
%SFA1.0B1.0*%
%ADD10C,0.088000*%
%ADD11C,0.085000*%
%ADD12C,0.081824*%
%ADD13R,0.085000X0.085000*%
%LNMASK1*%
G90*
G70*
G54D10*
X3697Y1905D03*
X3697Y1805D03*
X3697Y1705D03*
G54D11*
X1297Y905D03*
X1197Y905D03*
G54D10*
X4097Y2105D03*
X4097Y2005D03*
X4097Y1905D03*
X4097Y1805D03*
X4097Y1705D03*
X4097Y1605D03*
X4097Y1505D03*
X4097Y1405D03*
X4097Y1305D03*
X4097Y1205D03*
X297Y2105D03*
X297Y2005D03*
X297Y1905D03*
X297Y1805D03*
X297Y1705D03*
X297Y1605D03*
X297Y1505D03*
X297Y1405D03*
X297Y1305D03*
X297Y1205D03*
G54D12*
X1398Y1219D03*
X1498Y1219D03*
X1598Y1219D03*
X1698Y1219D03*
X1797Y1219D03*
X1898Y1219D03*
X1998Y1219D03*
X2097Y1219D03*
X2198Y1219D03*
X2297Y1219D03*
X2397Y1219D03*
X2498Y1219D03*
X2597Y1219D03*
X2698Y1219D03*
X2797Y1219D03*
X2897Y1219D03*
X2997Y1219D03*
X3097Y1219D03*
X3197Y1219D03*
X3197Y2205D03*
X3097Y2205D03*
X2997Y2205D03*
X2897Y2205D03*
X2797Y2205D03*
X2698Y2205D03*
X2597Y2205D03*
X2498Y2205D03*
X2397Y2205D03*
X2297Y2205D03*
X2198Y2205D03*
X2097Y2205D03*
X1998Y2205D03*
X1898Y2205D03*
X1797Y2205D03*
X1698Y2205D03*
X1598Y2205D03*
X1498Y2205D03*
X1398Y2205D03*
G54D13*
X1297Y905D03*
G04 End of Mask1*
M02*