; NON-PLATED HOLES START AT T1
; THROUGH (PLATED) HOLES START AT T100
M48
INCH
T100C0.038779
T101C0.038000
T102C0.035000
%
T100
X018976Y022046
X019980Y012190
X013979Y012190
X024978Y022046
X021977Y012190
X029965Y022046
X022971Y012190
X031973Y012190
X017973Y012190
X016979Y012190
X027968Y012190
X017973Y022046
X022971Y022046
X016979Y022046
X021977Y022046
X015976Y012190
X029965Y012190
X014982Y012190
X019980Y022046
X020973Y022046
X025971Y012190
X027968Y022046
X031973Y022046
X023974Y022046
X026975Y022046
X030969Y022046
X023974Y012190
X018976Y012190
X028972Y022046
X014982Y022046
X025971Y022046
X026975Y012190
X024978Y012190
X030969Y012190
X013979Y022046
X020973Y012190
X028972Y012190
X015976Y022046
T101
X002968Y013046
X040968Y018047
X040968Y017047
X002968Y020047
X040968Y015046
X002968Y019047
X040968Y016046
X002968Y014046
X002968Y017047
X040968Y021046
X002968Y016046
X040968Y014046
X040968Y013046
X040968Y012046
X040968Y020047
X036968Y019047
X002968Y018047
X002968Y021046
X036968Y017047
X002968Y012046
X040968Y019047
X036968Y018047
X002968Y015046
T102
X011968Y009046
X012968Y009046
T00
M30
